<svg version="1.1"
	 xmlns="http://www.w3.org/2000/svg" xmlns:xlink="http://www.w3.org/1999/xlink" xmlns:a="http://ns.adobe.com/AdobeSVGViewerExtensions/3.0/"
	 x="0px" y="0px" width="300px" height="30px" viewBox="-2.831 -2.678 300 30"
	 overflow="visible" enable-background="new -2.831 -2.678 300 30" xml:space="preserve">


<defs>
</defs>
<path id="logo1" fill="#631785" d="M59.399,12.081l-4.377-7.582c-0.02,0.045-0.049,0.082-0.069,0.127c-0.396,0.924-0.594,1.903-0.594,2.934
	v5.196h5.04V12.081z M61.919,20.16c-0.696,0-1.291-0.246-1.782-0.738c-0.492-0.492-0.738-1.086-0.738-1.782v-4.209l-4.294,7.438
	c0.381,0.792,0.858,1.507,1.468,2.117c0.684,0.684,1.482,1.224,2.394,1.62s1.896,0.594,2.952,0.594h5.04
	c0.005,0,0.01-0.001,0.015-0.001l-2.91-5.039H61.919z M66.959,5.04c0.696,0,1.29,0.247,1.782,0.738
	c0.492,0.492,0.738,1.086,0.738,1.782v1.26h2.768L67.161,0.01c-0.004,0-0.007,0-0.011,0L64.245,5.04H66.959z M93.705,5.04h0.219
	v7.716h5.04V5.04h0.561L96.614,0L93.705,5.04z M106.271,8.786v3.97h5.04V5.04h2.52V4.308L111.344,0L106.271,8.786z M64.439,11.592
	v1.164h10.08l-0.672-1.164H64.439z M79.055,12.756h5.04V9.504l2.036,3.251h3.117L81.885,0l-2.91,5.04h0.081V12.756z M118.619,12.756
	h0.09l-0.09-0.156V12.756z M106.271,20.16h-2.52v5.04h7.413l-4.893-8.475V20.16z M69.894,24.606c0.923-0.396,1.728-0.936,2.412-1.62
	c0.684-0.684,1.224-1.482,1.62-2.394s0.594-1.896,0.594-2.952v-4.882l-7.173,12.423C68.236,25.138,69.086,24.952,69.894,24.606z
	 M98.963,25.2v-3.757L96.794,25.2H98.963z M113.831,25.2v-3.997l-2.308,3.997H113.831z M76.535,20.16v5.04h5.169l-2.91-5.04H76.535z
	 M87.753,15.347l6.17,9.854h2.511L89.25,12.756L87.753,15.347z M90.608,10.402l-1.359,2.354h2.833L90.608,10.402z M270.285,12.756
	V5.93l-3.941,6.827H270.285z M265.244,17.64c0,0.696-0.246,1.291-0.738,1.782c-0.492,0.492-1.086,0.738-1.781,0.738h-0.656
	l-2.908,5.038c0.013,0,0.024,0.002,0.037,0.002h3.527c1.031,0,2.01-0.198,2.934-0.594s1.729-0.936,2.412-1.62
	s1.225-1.482,1.621-2.394c0.183-0.422,0.319-0.862,0.418-1.315l-3.766-6.521l-1.1,1.904V17.64z M29.88,20.16h-2.448v5.04h10.08
	v-0.006l-6.016-10.419L29.88,20.16z M82.064,25.2h4.551v-5.04h-1.641L82.064,25.2z M277.591,20.16h-0.793l-1.727,2.99v2.05h10.08
	v-5.04h-2.52v-4.032h0.387l-1.947-3.372l-3.48,6.029V20.16z M277.591,12.756h3.48l-3.48-6.03V12.756z M288.529,0.158
	c-0.056-0.011-0.113-0.015-0.169-0.025l-2.833,4.907h1.389c0.84,0,1.555,0.294,2.143,0.882c0.588,0.588,0.883,1.302,0.883,2.142
	c0,0.841-0.295,1.554-0.883,2.142c-0.588,0.588-1.303,0.882-2.143,0.882h-4.283v-1.035l-1.561,2.703h12.401
	c0.341-0.477,0.638-0.988,0.878-1.542c0.083-0.194,0.152-0.393,0.219-0.592L288.529,0.158z M42.24,17.64h1.427l0.756,2.52h-2.376
	v5.04h10.08v-0.204l-7.067-12.241L42.24,17.64z M17.64,20.16h-2.52v5.04h7.666l-5.146-8.913V20.16z M25.2,25.2v-3.559L23.146,25.2
	H25.2z M10.08,25.2v-2.882L8.416,25.2H10.08z M2.52,20.16H0v5.04h8.057L2.52,15.611V20.16z M46.639,10.022l-1.578,2.733h2.398
	L46.639,10.022z M16.752,10.761L17.64,9.36v3.396h5.04V5.04h2.52V3.87L22.966,0L16.752,10.761z M7.56,9.36l2.151,3.396h5.778
	l0.059-0.092l-2.85-4.935L12.6,7.884L7.947,0.5l-5.427,9.4v2.855h5.04V9.36z M34.016,6.372l-1.915,6.384h12.959L37.695,0
	L34.016,6.372z M39.888,5.04l2.268,7.56h-4.752l2.268-7.56H39.888z M234.751,16.447l-5.053,8.753h7.574v-5.04h-2.521V16.447z
	 M219.922,17.64c0,0.696-0.247,1.291-0.738,1.782c-0.369,0.369-0.794,0.599-1.277,0.691l-2.937,5.087h2.432
	c1.032,0,2.01-0.198,2.935-0.594c0.923-0.396,1.728-0.936,2.411-1.62c0.685-0.684,1.224-1.482,1.62-2.394s0.594-1.896,0.594-2.952
	v-0.022l-2.807-4.861l-2.232,3.866V17.64z M209.842,8.568l-2.418,4.188h2.418V8.568z M229.519,0 M224.961,12.756V7.895l-2.807,4.861
	H224.961z M210.579,19.422c-0.492-0.492-0.737-1.086-0.737-1.782v-0.696l-2.418-4.188l-2.623,4.543v0.34
	c0,1.057,0.199,2.04,0.595,2.952s0.936,1.71,1.62,2.394c0.684,0.684,1.481,1.224,2.394,1.62s1.896,0.594,2.952,0.594h2.248
	l-2.975-5.153C211.243,19.933,210.888,19.732,210.579,19.422z M219.922,12.756h2.232l-2.232-3.867V12.756z M234.751,11.088V9.065
	L229.519,0l-2.325,4.027V5.04h2.52v7.716h7.169l-0.963-1.668H234.751z M227.193,25.2h2.145l-2.145-3.715V25.2z M234.936,16.128
	h3.894l-1.947-3.372L234.936,16.128z M251.636,17.64c0,1.057,0.197,2.04,0.594,2.952s0.936,1.71,1.621,2.394
	c0.684,0.684,1.48,1.224,2.393,1.62c0.792,0.344,1.642,0.529,2.543,0.575l-7.15-12.387V17.64z M256.675,5.04h2.521V0.379L258.978,0
	l-7.342,12.716v0.041h5.039V5.04z M244.742,2.358c-0.386-0.385-0.808-0.725-1.263-1.023l-2.536,4.392
	c0.079,0.065,0.161,0.121,0.236,0.196c0.588,0.588,0.881,1.302,0.881,2.142c0,0.841-0.293,1.554-0.881,2.142
	c-0.59,0.588-1.303,0.882-2.143,0.882h-1.189l-0.963,1.668h8.709c0.341-0.477,0.638-0.988,0.877-1.542
	c0.42-0.972,0.631-2.022,0.631-3.15c0-1.104-0.211-2.147-0.631-3.132C246.05,3.948,245.474,3.09,244.742,2.358z M275.072,2.362V5.04
	h1.546L275.072,2.362z M265.244,10.854v1.902h1.098L265.244,10.854z M272.804,5.04V1.566l-2.006,3.474H272.804z M190.438,11.088
	V8.847L185.33,0l-2.453,4.249V5.04h2.52v7.716h7.297l-0.963-1.668H190.438z M153.394,7.56c0-0.696,0.246-1.29,0.738-1.782
	c0.492-0.492,1.086-0.738,1.782-0.738h2.867l-2.909-5.038c0,0-0.001,0-0.002,0l-0.168,0.292l-0.159-0.276
	c-0.007,0-0.014,0.001-0.021,0.001l-7.167,12.413v0.325h0.153l0,0h4.887V7.56z M140.983,25.2h5.104v-5.04h-2.194L140.983,25.2z
	 M167.761,4.332l-2.591,4.488h3.345V7.56c0-1.031-0.198-2.01-0.594-2.934C167.875,4.521,167.809,4.434,167.761,4.332z
	 M148.354,13.021v4.619c0,1.057,0.198,2.04,0.594,2.952s0.936,1.71,1.62,2.394s1.482,1.224,2.394,1.62
	c0.845,0.367,1.754,0.556,2.723,0.583l-7.178-12.433L148.354,13.021z M136.006,20.16v5.04h4.617l-2.91-5.04H136.006z M118.619,20.16
	h-2.52v5.04h9.795l-7.185-12.444l-0.09,0.156V20.16z M204.801,12.756h2.623l-2.623-4.543V12.756z M138.526,12.756h5.04V5.04h0.146
	L140.803,0l-2.91,5.04h0.633V12.756z M190.438,16.666L185.51,25.2h7.447v-5.04h-2.52V16.666z M217.401,5.04
	c0.109,0,0.21,0.017,0.314,0.029L214.789,0l-2.938,5.088c0.164-0.032,0.333-0.048,0.51-0.048H217.401z M194.641,16.128l-1.947-3.372
	l-1.947,3.372H194.641z M182.877,25.2h2.272l-2.272-3.937V25.2z M163.474,16.38v1.26c0,0.696-0.247,1.291-0.738,1.782
	c-0.492,0.492-1.086,0.738-1.782,0.738h-2.333l-2.904,5.031c0.066,0.001,0.13,0.009,0.197,0.009h5.04
	c1.032,0,2.01-0.198,2.934-0.594c0.923-0.396,1.728-0.936,2.412-1.62c0.646-0.646,1.153-1.402,1.542-2.252l-2.515-4.354H163.474z
	 M200.427,2.358c-0.36-0.36-0.751-0.681-1.172-0.966l-2.543,4.404c0.049,0.044,0.103,0.078,0.151,0.125
	c0.588,0.588,0.882,1.302,0.882,2.142c0,0.841-0.294,1.554-0.882,2.142c-0.588,0.588-1.302,0.882-2.142,0.882h-1.064l-0.963,1.668
	h8.583c0.341-0.477,0.638-0.988,0.877-1.542c0.42-0.972,0.63-2.022,0.63-3.15c0-1.104-0.21-2.147-0.63-3.132
	C201.735,3.948,201.159,3.09,200.427,2.358z M118.708,12.756h9.99V10.08h-5.04V5.04h5.04v2.52h1.739L126.073,0L118.708,12.756z"/>
<path id="logo2" fill="#87ABC0" d="M217.906,20.113L217.906,20.113 M34.017,6.371L34.017,6.371 M32.101,12.756 M270.109,19.277L270.109,19.277
	c-0.005,0.02-0.012,0.04-0.016,0.06C270.097,19.317,270.104,19.298,270.109,19.277z M84.095,12.756h-5.04v7.404h-0.26l2.91,5.04
	h0.36l2.91-5.04h-0.879V12.756z M74.52,12.756v-1.164h-0.672L74.52,12.756z M76.535,5.04h2.439L81.885,0h-5.35V5.04z M166.3,2.214
	c-0.684-0.684-1.488-1.224-2.412-1.62C162.964,0.198,161.986,0,160.954,0h-5.04c-0.014,0-0.028,0.002-0.042,0.002l2.909,5.038h2.173
	c0.696,0,1.29,0.247,1.782,0.738c0.492,0.492,0.738,1.086,0.738,1.782v1.26h1.695l2.591-4.488
	C167.38,3.538,166.906,2.821,166.3,2.214z M229.308,0L229.308,0l-2.114,0v4.028L229.519,0H229.308z M67.149,0.009L67.149,0.009
	c0.002,0,0.004,0,0.006,0C67.154,0.009,67.152,0.009,67.149,0.009z M67.149,0.009C67.085,0.007,67.024,0,66.959,0h-0.018l0,0.001
	h-5.043c-1.049,0.002-2.025,0.2-2.932,0.593c-0.912,0.396-1.71,0.936-2.394,1.62s-1.224,1.488-1.62,2.412
	c0.02-0.045,0.049-0.082,0.069-0.127l4.377,7.582V7.56c0-0.696,0.246-1.29,0.738-1.782c0.492-0.492,1.086-0.738,1.782-0.738h2.325
	L67.149,0.009z M72.305,2.214c-0.684-0.684-1.488-1.224-2.412-1.62c-0.863-0.37-1.776-0.56-2.733-0.584l5.087,8.811h2.272V7.56
	c0-1.031-0.198-2.01-0.594-2.934C73.529,3.703,72.989,2.898,72.305,2.214z M67.99,25.123c-0.209,0.028-0.424,0.034-0.637,0.048
	l-0.006,0.01C67.563,25.17,67.778,25.151,67.99,25.123z M66.974,25.199L66.974,25.199c-0.005,0-0.01,0.001-0.015,0.001
	C66.964,25.2,66.969,25.199,66.974,25.199z M64.439,16.632h5.04v1.008c0,0.696-0.247,1.291-0.738,1.782
	c-0.492,0.492-1.086,0.738-1.782,0.738h-2.895l2.91,5.039c0.129,0,0.252-0.021,0.378-0.028l7.167-12.413v-0.002h-10.08V16.632z
	 M275.072,23.15l1.727-2.99h-1.727V23.15z M2.52,9.901l5.427-9.4L7.632,0H0v5.04h2.52V9.901z M152.962,0.594
	c-0.912,0.396-1.71,0.936-2.394,1.62s-1.224,1.488-1.62,2.412c-0.396,0.924-0.594,1.903-0.594,2.934v4.871l7.167-12.413
	C154.614,0.062,153.759,0.248,152.962,0.594z M12.6,17.316l2.889-4.561H9.711L12.6,17.316z M7.56,12.756H2.52v2.855L8.057,25.2
	h0.359l1.664-2.882V20.16H7.56V12.756z M155.87,0.002c-0.111,0.001-0.218,0.011-0.328,0.016l0.159,0.276L155.87,0.002z M12.6,7.884
	l0.098-0.156l2.85,4.935L17.64,9.36l-0.888,1.401L22.966,0h-5.398L12.6,7.884z M25.2,3.87V0h-2.234L25.2,3.87z M22.68,12.756h-5.04
	v3.532l5.146,8.913h0.359l2.055-3.559V20.16h-2.52V12.756z M190.438,5.04h4.284c0.839,0,1.553,0.294,2.142,0.882
	c-0.048-0.048-0.102-0.082-0.151-0.125l2.543-4.404c-0.435-0.294-0.902-0.549-1.402-0.762C196.869,0.21,195.825,0,194.722,0h-9.392
	l5.107,8.847V5.04z M47.458,12.756h-2.398l7.067,12.241V20.16H49.68L47.458,12.756z M54.359,17.64c0,1.057,0.198,2.04,0.594,2.952
	c0.043,0.098,0.105,0.181,0.151,0.277l4.294-7.438v-0.675h-5.04V17.64z M182.877,0v4.249L185.33,0H182.877z M234.751,5.04h4.285
	c0.733,0,1.364,0.238,1.906,0.687l2.536-4.392c-0.409-0.269-0.845-0.506-1.312-0.705C241.183,0.21,240.14,0,239.037,0
	c0.004,0,0.007,0,0.01,0h-9.528l5.233,9.065V5.04z M31.496,14.774l6.016,10.419V20.16h-2.376l0.756-2.52h6.349l2.82-4.884H32.101
	 M87.753,15.347l1.496-2.591l1.359-2.354l1.474,2.354H89.25L96.435,25.2h0.359l2.169-3.757v-8.687h-5.04v2.94L84.095,0h-2.21
	l7.363,12.756h-3.117 M35.928,0l-1.911,6.371L37.695,0H35.928z M43.632,0h-5.937l7.365,12.756l1.578-2.733L43.632,0z
	 M237.847,11.088h-1.928l0.963,1.668l1.947,3.372h0.207c1.104,0,2.146-0.21,3.131-0.63c0.984-0.419,1.842-0.996,2.574-1.728
	c0.314-0.314,0.594-0.655,0.852-1.014h-8.709L237.847,11.088z M251.636,12.716L258.978,0h-9.861v5.04h2.52V12.716z M229.713,20.16
	h-2.52v1.325l2.145,3.715h0.36l5.053-8.753v-0.319h0.185l1.946-3.372h-7.169V20.16z M209.842,12.756h-2.418l2.418,4.188V12.756z
	 M219.922,16.623l2.232-3.866h-2.232V16.623z M222.747,2.214c-0.684-0.684-1.488-1.224-2.411-1.62
	C219.411,0.198,218.434,0,217.401,0h-2.612l2.927,5.069c-0.104-0.012-0.206-0.029-0.314-0.029c0.696,0,1.29,0.247,1.782,0.738
	c0.491,0.492,0.738,1.086,0.738,1.782v1.33l2.232,3.867l2.807-4.861V7.56c0-1.031-0.197-2.01-0.594-2.934
	C223.971,3.703,223.432,2.898,222.747,2.214z M224.961,12.756h-2.807l2.807,4.861V12.756z M209.409,0.594
	c-0.912,0.396-1.71,0.936-2.394,1.62c-0.685,0.684-1.225,1.488-1.62,2.412C205,5.55,204.801,6.529,204.801,7.56v0.653l2.623,4.543
	l2.418-4.188V7.56c0-0.696,0.245-1.29,0.737-1.782c0.367-0.367,0.791-0.597,1.272-0.69L214.789,0h-2.428
	C211.305,0,210.321,0.198,209.409,0.594z M204.801,17.3l2.623-4.543h-2.623V17.3z M259.197,0h-0.219l0.219,0.379V0z M277.591,18.786
	l3.48-6.029h-3.48V18.786z M294.351,4.932c-0.422-0.984-0.996-1.842-1.729-2.574s-1.59-1.308-2.574-1.728
	c-0.491-0.209-0.998-0.367-1.52-0.472l6.041,10.464c0.269-0.803,0.41-1.654,0.41-2.558C294.98,6.96,294.769,5.917,294.351,4.932z
	 M282.632,5.04h2.895l2.833-4.907C287.89,0.049,287.41,0,286.916,0h-11.844v2.362l1.546,2.678h0.974v1.687l3.48,6.03l1.561-2.703
	V5.04z M283.019,16.128h3.896c1.104,0,2.148-0.21,3.133-0.63c0.984-0.419,1.842-0.996,2.574-1.728
	c0.314-0.314,0.594-0.655,0.851-1.014h-12.401L283.019,16.128z M270.285,17.64v-4.884h-3.941l3.766,6.521
	C270.222,18.751,270.285,18.207,270.285,17.64z M259.197,20.16c-0.697,0-1.291-0.246-1.783-0.738
	c-0.492-0.492-0.738-1.086-0.738-1.782v-4.884h-5.039v0.037l7.15,12.387c0.137,0.007,0.271,0.02,0.41,0.02
	c-0.013,0-0.024-0.002-0.037-0.002l2.908-5.038H259.197z M262.724,5.04h2.52v5.814l1.098,1.902h-1.098v1.904l1.1-1.904l3.941-6.827
	V5.04h0.514l2.006-3.474V0h-10.08V5.04z M99.524,5.04h1.959V0h-4.869L99.524,5.04z M143.566,12.756h-5.04v7.404h-0.813l2.91,5.04
	h0.359l2.91-5.04h-0.326V12.756z M118.619,12.912l0.09-0.156h-0.09V12.912z M116.099,5.04h2.52v7.56l0.09,0.156L126.073,0h-9.975
	V5.04z M91.403,5.04h2.301L96.614,0h-5.211V5.04z M136.006,5.04h1.887l2.91-5.04h-4.797V5.04z M155.676,25.189 M113.831,4.308V0
	h-2.487L113.831,4.308z M111.311,12.756h-5.04v3.97l4.893,8.475h0.359l2.308-3.997V20.16h-2.52V12.756z M103.751,5.04h2.52v3.746
	L111.344,0h-7.593V5.04z M126.179,25.2v-5.04h-2.52v-5.04h5.04v-2.364h-9.99l7.185,12.444H126.179z M130.438,7.56h3.301V0h-7.666
	L130.438,7.56z M143.712,5.04h2.374V0h-5.283L143.712,5.04z M201.269,12.756h0.009 M194.641,16.128h0.081
	c1.104,0,2.147-0.21,3.132-0.63c0.984-0.419,1.841-0.996,2.574-1.728c0.313-0.312,0.586-0.656,0.841-1.014h-8.574L194.641,16.128z
	 M212.361,20.16c-0.258,0-0.498-0.045-0.728-0.113l2.975,5.153h0.36l2.937-5.086c-0.162,0.031-0.33,0.046-0.505,0.046H212.361z
	 M191.731,11.088l0.963,1.668l0.963-1.668H191.731z M148.354,12.756v0.265l0.153-0.265l0,0H148.354z M167.842,20.734
	c0.023-0.05,0.056-0.092,0.078-0.142c0.396-0.912,0.594-1.896,0.594-2.952v-1.26h-3.187L167.842,20.734z M154.132,19.422
	c-0.492-0.492-0.738-1.086-0.738-1.782v-4.884h-4.887l7.178,12.433c0.011,0,0.022,0.001,0.033,0.001l2.904-5.031h-2.708
	C155.218,20.16,154.624,19.915,154.132,19.422z M185.397,20.16h-2.52v1.104l2.272,3.937h0.36l4.927-8.535v-0.537h0.31l1.947-3.372
	h-7.297V20.16z"/>
<path id="logo3" opacity="0.5" fill="#8245E3" d="M244.742,2.358c-0.732-0.732-1.59-1.308-2.574-1.728c-0.419-0.179-0.851-0.311-1.29-0.414
	l-2.785,4.823h0.944c0.84,0,1.553,0.294,2.143,0.882c0.117,0.118,0.214,0.244,0.308,0.371h5.415
	c-0.104-0.465-0.243-0.92-0.432-1.361C246.05,3.948,245.474,3.09,244.742,2.358z M219.124,0.204C218.567,0.073,217.994,0,217.401,0
	h-5.04c-0.417,0-0.821,0.04-1.215,0.102L207.74,6l-1.583-2.742c-0.292,0.424-0.551,0.876-0.761,1.368
	c-0.23,0.537-0.385,1.094-0.482,1.667h2.658h0.338h2.278c0.108-0.181,0.232-0.355,0.392-0.515c0.491-0.492,1.086-0.738,1.782-0.738
	h5.04c0.696,0,1.29,0.247,1.782,0.738c0.159,0.16,0.284,0.334,0.391,0.515h2.726h0.34L219.124,0.204z M224.367,4.626
	c-0.104-0.243-0.246-0.456-0.37-0.683l-1.357,2.35h2.208C224.752,5.72,224.598,5.163,224.367,4.626z M262.724,0v5.04h2.52v1.253
	h1.586L263.196,0H262.724z M207.572,6.293l-2.771,4.799v6.548c0,0.486,0.047,0.954,0.131,1.409h5.337
	c-0.284-0.411-0.427-0.88-0.427-1.409v-8l-1.932-3.347l-0.168,0.293L207.572,6.293z M265.244,17.64c0,0.529-0.144,0.998-0.428,1.409
	h5.338c0.084-0.455,0.131-0.923,0.131-1.409v-5.363l-3.455-5.984l-1.586,2.747V17.64z M266.83,6.293h3.455V5.04h2.52V0h-2.341
	L266.83,6.293z M59.399,7.811l-5.04,8.729v1.1c0,0.486,0.047,0.954,0.13,1.409h5.336c-0.284-0.411-0.427-0.88-0.427-1.409V7.811z
	 M42.07,12.314l0.086,0.286h-0.251l-2.91,5.04h4.672l0.423,1.409h5.256L45.529,6.323L42.07,12.314z M35.892,17.64h1.477l-4.43-7.673
	l-2.725,9.082h5.256L35.892,17.64z M118.619,6.293h0.576l-0.576-0.997V6.293z M163.474,17.64c0,0.529-0.144,0.998-0.428,1.409h5.337
	c0.084-0.455,0.131-0.923,0.131-1.409v-1.26h-5.04V17.64z M137.558,0l-1.551,2.687V5.04h2.52v1.253h5.04V5.04h2.52V1.846L145.021,0
	H137.558z M118.619,19.049h5.04V15.12h0.633l-5.096-8.827l-0.577,1V19.049z M122.828,0l-3.633,6.293h0.001h4.463V5.04h5.04v1.253
	h5.04V5.974L130.291,0H122.828z M138.526,19.049h2.763l-2.763-4.785V19.049z M137.737,25.2h7.104l-3.552-6.151L137.737,25.2z
	 M93.923,15.696L88.92,7.705l-2.855,4.945l4.007,6.399H97.1l-3.176-5.502V15.696z M155.914,20.16c-0.176,0-0.346-0.017-0.509-0.048
	l-2.558,4.431c0.041,0.018,0.074,0.045,0.115,0.063c0.912,0.396,1.896,0.594,2.952,0.594h3.656l-2.91-5.04H155.914z M143.566,15.104
	l-2.277,3.944h2.277V15.104z M259.197,20.16c-0.123,0-0.238-0.017-0.355-0.032l-2.588,4.482c0.91,0.393,1.891,0.59,2.943,0.59h3.527
	c0.096,0,0.188-0.01,0.284-0.014l-2.902-5.026H259.197z M229.713,19.131v1.029h-0.689l-1.831,3.17v1.87h6.363l-3.551-6.151
	l-0.17,0.293L229.713,19.131z M229.713,19.049h0.292l-0.292-0.506V19.049z M239.037,11.088h-4.285v-0.261l-4.746,8.222h4.746v-2.921
	h4.285c1.104,0,2.146-0.21,3.131-0.63c0.139-0.059,0.27-0.129,0.403-0.194l-2.533-4.387
	C239.725,11.023,239.395,11.088,239.037,11.088z M67.001,20.156L64.089,25.2h2.871c1.032,0,2.01-0.198,2.934-0.594
	c0.259-0.111,0.487-0.26,0.728-0.394l-2.505-4.339C67.779,20.051,67.41,20.15,67.001,20.156z M275.072,0v5.04h2.52v1.253h3.967
	L277.925,0H275.072z M277.591,19.049h5.041v-2.921h4.283c0.105,0,0.208-0.011,0.312-0.015l-2.901-5.025h-1.694V8.154l-1.074-1.86
	l-3.967,6.872V19.049z M84.095,16.061l-1.725,2.988h1.725V16.061z M294.351,4.932c-0.422-0.984-0.996-1.842-1.729-2.574
	s-1.59-1.308-2.574-1.728S288.019,0,286.916,0h-1.724l-3.634,6.293h1.074V5.04h4.283c0.84,0,1.555,0.294,2.143,0.882
	c0.117,0.118,0.214,0.244,0.309,0.371h5.415C294.677,5.828,294.539,5.374,294.351,4.932z M79.055,19.049h3.315l-3.315-5.741V19.049z
	 M98.963,19.049V15.82L97.1,19.049H98.963z M93.923,25.2h5.04v-2.923L97.1,19.049l-3.372,5.84L93.923,25.2z M78.818,25.2h7.104
	l-3.552-6.151L78.818,25.2z M222.47,6.588l-0.17-0.294l-2.378,4.12v7.227c0,0.529-0.144,0.998-0.428,1.409h5.337
	c0.083-0.455,0.13-0.923,0.13-1.409v-7.327l-2.321-4.02L222.47,6.588z M163.474,7.56v1.26h1.368l-1.459-2.527l-0.132,0.229
	C163.396,6.839,163.474,7.183,163.474,7.56z M167.92,4.626c-0.396-0.923-0.936-1.728-1.62-2.412
	c-0.117-0.117-0.257-0.205-0.381-0.313l-2.536,4.392h5.018C168.305,5.72,168.15,5.163,167.92,4.626z M148.467,6.293h0.187
	l-0.147-0.255C148.489,6.122,148.481,6.208,148.467,6.293z M163.383,6.293L159.75,0h-3.836c-1.057,0-2.04,0.198-2.952,0.594
	c-0.566,0.246-1.073,0.567-1.551,0.924l-2.757,4.774h5.087c0.107-0.181,0.231-0.355,0.391-0.515
	c0.492-0.492,1.086-0.738,1.782-0.738h5.04c0.696,0,1.29,0.247,1.782,0.738c0.159,0.16,0.283,0.334,0.391,0.515H163.383z
	 M69.036,16.632h0.444v1.008c0,0.529-0.144,0.998-0.427,1.409h5.337c0.083-0.455,0.13-0.923,0.13-1.409v-6.048h-2.574L69.036,16.632
	z M123.008,25.2h3.171v-5.04h-0.261L123.008,25.2z M148.354,7.56v10.08c0,0.486,0.047,0.954,0.131,1.409h5.336
	c-0.284-0.411-0.427-0.88-0.427-1.409v-3.137l-4.74-8.21l-0.253,0.438C148.372,7.003,148.354,7.279,148.354,7.56z M37.512,25.2
	v-4.991L34.63,25.2H37.512z M111.311,20.16v-0.214l-3.034,5.254h5.554v-2.684l-1.36-2.356H111.311z M52.127,25.2v-4.794L49.359,25.2
	H52.127z M256.675,5.04h2.521V0h-3.464l-3.634,6.293h4.576V5.04z M256.675,17.64v-3.421l-4.576-7.925l-0.463,0.802V17.64
	c0,0.486,0.047,0.954,0.13,1.409h5.337C256.819,18.638,256.675,18.169,256.675,17.64z M251.636,6.293h0.463l-0.463-0.802V6.293z
	 M185.397,19.049h0.081l-0.081-0.14V19.049z M275.072,25.2h2.674l-2.674-4.632V25.2z M194.722,11.088h-4.284v-0.631l-4.959,8.592
	h0.339l0,0h4.621v-2.921h4.284c1.104,0,2.147-0.21,3.132-0.63c0.173-0.074,0.337-0.158,0.502-0.242l-2.524-4.372
	C195.49,11.017,195.121,11.088,194.722,11.088z M185.478,19.049l-0.081,0.14v0.972h-0.561l-1.959,3.393V25.2h6.49l-3.551-6.151
	l-0.169,0.293L185.478,19.049z M214.295,20.16l-2.875,4.979c0.308,0.037,0.62,0.062,0.941,0.062h5.04
	c0.462,0,0.912-0.046,1.353-0.125l-2.838-4.915H214.295z M200.427,2.358c-0.732-0.732-1.59-1.308-2.574-1.728
	c-0.478-0.204-0.97-0.356-1.476-0.461l-2.812,4.871h1.157c0.839,0,1.553,0.294,2.142,0.882c0.117,0.118,0.214,0.244,0.308,0.371
	h5.416c-0.104-0.465-0.244-0.92-0.432-1.361C201.735,3.948,201.159,3.09,200.427,2.358z M93.369,0l-1.965,3.404V5.04h2.52v1.253
	h5.04V5.04h2.52V1.13L100.831,0H93.369z M79.055,6.293h8.98L84.095,0h-5.457l-2.103,3.643V5.04h2.52V6.293z M111.311,18.151
	l-5.04-8.729v9.626h5.04V18.151z M66.246,16.632l-1.806-3.128v3.128H66.246z M22.811,20.16L19.9,25.2h5.3v-3.124l-1.106-1.917
	H22.811z M105.188,5.04h1.083v1.253h5.04V5.04h2.52V0h-5.733L105.188,5.04z M68.741,5.778c0.159,0.16,0.283,0.334,0.391,0.515h5.274
	c-0.096-0.573-0.251-1.13-0.481-1.667c-0.396-0.923-0.936-1.728-1.62-2.412c-0.684-0.684-1.488-1.224-2.412-1.62
	C68.969,0.198,67.991,0,66.959,0h-3.05l-3.043,5.271c0.321-0.149,0.67-0.231,1.054-0.231h5.04
	C67.655,5.04,68.249,5.287,68.741,5.778z M56.573,2.214c-0.684,0.684-1.224,1.488-1.62,2.412c-0.23,0.537-0.385,1.094-0.481,1.667
	h5.274c0.083-0.141,0.183-0.274,0.297-0.402l-2.558-4.43C57.167,1.693,56.854,1.934,56.573,2.214z M39.672,5.04h0.216l0.376,1.253
	h5.256l-0.029-0.096L41.913,0h-5.985L34.04,6.293h5.256L39.672,5.04z M133.739,7.56V6.614l-0.546,0.946H133.739z M16.087,6.293
	h6.593V5.04h2.52V0h-5.479L16.087,6.293z M291.392,14.774c0.442-0.294,0.854-0.628,1.23-1.004c0.732-0.731,1.307-1.584,1.729-2.556
	c0.35-0.814,0.546-1.687,0.604-2.61L291.392,14.774z M12.6,17.316l5.04-7.956v9.688h5.04v-1.337L16.087,6.293l-4.993,8.647
	L12.6,17.316z M8.081,20.16l-2.91,5.04h4.909v-3.8l-0.716-1.24H8.081z M229.713,6.293h5.039V5.04h1.894L233.736,0h-6.542v5.04h2.52
	V6.293z M116.099,5.04h2.373l-2.373-4.109V5.04z M185.397,6.293h5.04V5.04h1.681L189.208,0h-6.331v5.04h2.52V6.293z M249.117,5.04
	h2.259l-2.259-3.912V5.04z"/>
	<script type="text/javascript">
		var el1 = document.getElementById('logo1').style,
		el2 = document.getElementById('logo2').style,
		el3 = document.getElementById('logo3').style;
		if(window.localStorage!==undefined) {
			var colors = localStorage.getItem("colors");
			if(colors) {
				colors = colors.split(','); 
				if(colors[0]) {
					if(colors[0] !== 'undefined') {
						el1.fill = colors[0];
						el2.fill = colors[1];
						el3.fill = colors[2];
					}
				}
			}
		}
		
		setTimeout(function() {
			var t = 'fill .15s';
			el1.webkitTransition = t;
			el2.webkitTransition = t;
			el3.webkitTransition = t;

			el1.webkitTransition = t;
			el2.webkitTransition = t;
			el3.webkitTransition = t;

			el1.mozTransition = t;
			el2.mozTransition = t;
			el3.mozTransition = t;

		}, 1);
	</script>
	
</svg>